<?xml version="1.0" encoding="utf-8"?>
<!-- Generator: Adobe Illustrator 25.4.1, SVG Export Plug-In . SVG Version: 6.00 Build 0)  -->
<svg version="1.1" id="Layer_1" xmlns="http://www.w3.org/2000/svg" xmlns:xlink="http://www.w3.org/1999/xlink" x="0px" y="0px"
	 viewBox="0 0 328.3 250.6" style="enable-background:new 0 0 328.3 250.6;" xml:space="preserve">
<style type="text/css">
	.st0{fill:#F89521;}
	.st1{fill:#603B17;}
	.st2{fill:#292562;}
	.st3{fill:#EF4237;}
	.st4{fill:#F15B2B;}
</style>
<g>
	<g>
		<g>
			<g>
				<path class="st0" d="M53.5,35.7h-35c-3.4,0-6.2-2.8-6.2-6.2v-0.2c0-9.7,7.9-17.6,17.6-17.6h23.6V35.7z"/>
			</g>
		</g>
		<g>
			<g>
				<path class="st0" d="M55.4,43.4H55c-9.9,0-17.8-8-17.8-17.8v-2.1c0-9.9,8-17.8,17.8-17.8h0.4c9.9,0,17.8,8,17.8,17.8v2.1
					C73.2,35.4,65.2,43.4,55.4,43.4z"/>
			</g>
		</g>
		<g>
			<g>
				<path class="st0" d="M136.3,123.5l-15.9-4.7c-7.8-4-22.8-14-30.9-17.2C79.7,97.9,71.6,90.5,66.9,81L55.2,38.1l17-20.4l19.3,51.2
					c2.1,4.3,6.1,7.3,10.8,8.1l20.8,0.4L136.3,123.5z"/>
			</g>
		</g>
		<g>
			<g>
				<path class="st0" d="M111.4,77.1l44.9-61.5c5.9-6.3,14.1-9.9,22.7-9.9h0.3c12,0,22.9,6.9,28,17.7l4.9,10.3
					c6.2,13.1,18.4,22.4,32.7,25l3.8,0.7c16.3,2.9,29.4,14.9,33.7,30.8l7.4,27.3c3.1,11.6-5.6,22.9-17.6,22.9H154.9
					c-12.3,0-23.8-5.8-31.2-15.5l-12.3-16.2V77.1z"/>
			</g>
		</g>
		<g>
			<g>
				<path class="st0" d="M136.3,123.5v60.5c0,1.8-0.3,3.5-0.9,5.2l-16.8,46.2l-9.5,2.8c-3.6,1-6.5,3.6-8,7.1l-1.5,3.4H119
					c2.5,0,4.8-1.6,5.6-4l19.8-58.6l12.8-50.5L136.3,123.5z"/>
			</g>
		</g>
		<g>
			<g>
				<path class="st0" d="M150.1,134l19.6,61.2l4.9,38.6c0.2,1.7-0.8,3.4-2.5,3.9l-1.6,0.5c-3.8,1.3-10.7,5.6-10.7,9.6v1.6l16.6-0.8
					c3.5,0,6.2-3.1,5.8-6.6l-5.8-48.2l-2.2-56.9L150.1,134z"/>
			</g>
		</g>
		<g>
			<g>
				<path class="st0" d="M247.9,134l24.3,49.3l-8.3,50.2c-0.5,3.2-2.9,5.7-6.1,6.4l-2.6,0.6c-1.8,1.1-3.1,2.8-3.8,4.8l-1.3,3.9
					l15.5-0.4c2.2-0.1,4-1.7,4.4-3.8l10.8-64.3l-6.9-49.5L247.9,134z"/>
			</g>
		</g>
		<g>
			<g>
				<path class="st0" d="M264.5,131.2l40.3,52.1l6.1,48.6c0.4,3.4-1.8,6.7-5.1,7.6l-1.9,0.5c-1.8,1.1-3.1,2.8-3.8,4.8l-1.3,3.9
					l14.6-0.4c2.6-0.1,4.5-2.3,4.4-4.8l-4.3-62.7l-25.7-70.8L264.5,131.2z"/>
			</g>
		</g>
		<g>
			<g>
				<path class="st0" d="M273.6,76c0,0,1.4,0.1,3.9,0.1c1.2,0,2.7,0.1,4.4,0.2c0.9,0,1.8,0.1,2.7,0.1c0.5,0,1,0,1.5,0.1l0.8,0l0.4,0
					l0.2,0l0.4,0c1.1,0.2,2,0.1,3.4,0.6c1.4,0.4,2.8,0.7,4,1.4c2.6,1.1,4.8,3,6.8,5.2c1.8,2.4,3.5,5,4.1,8.1
					c0.8,2.9,1.1,5.6,1.7,8.4c1,5.5,2.1,11.1,3,16.3c0.5,2.6,1,5.1,1.4,7.4c0.5,2.4,1.4,4.3,2.5,6.1c1.1,1.7,2.5,3.1,3.7,4.3
					c1.2,1.3,2.2,2.3,3,3.2c1.7,1.8,2.7,2.8,2.7,2.8s-1-1-2.9-2.6c-0.9-0.8-2-1.8-3.3-3c-1.3-1.1-2.7-2.4-4.1-4.2
					c-1.3-1.7-2.5-4-3.2-6.2c-0.6-2.4-1.3-4.8-2-7.4c-1.4-5.1-2.8-10.5-4.3-16c-0.8-2.7-1.4-5.6-2.2-8c-0.7-2.4-2.2-4.3-3.7-6.1
					c-1.7-1.5-3.5-2.9-5.5-3.5c-1-0.5-1.9-0.6-2.7-0.8c-0.7-0.3-2.1-0.2-3.1-0.3l-0.4,0l-0.2,0l0,0c-0.2,0,0.3,0,0.2,0l0,0l-0.1,0
					l-0.8,0c-0.5,0-1,0-1.5,0.1c-1,0-1.9,0.1-2.7,0.1c-1.7,0.1-3.2,0.1-4.4,0.2c-2.5,0.1-3.9,0.1-3.9,0.1V76z"/>
			</g>
		</g>
		<g>
			<g>
				<path class="st0" d="M63.5,16.4l1.1-5.4c0.7-3.1,4-5.1,6.9-3.8c0.1,0,0.2,0.1,0.3,0.1c1.8,0.9,1.8,3.6,0,4.6L63.5,16.4z"/>
			</g>
		</g>
		<g>
			<g>
				<path class="st1" d="M65.4,15.1l0.6-2.8c0.4-1.7,2.1-2.7,3.7-2c0,0,0.1,0,0.1,0.1c1,0.5,1,1.9,0,2.4L65.4,15.1z"/>
			</g>
		</g>
		<g>
			<g>
				<path class="st2" d="M55.2,17c0,1.3-2.3,3-3.6,3s-3.4-1.7-3.4-3c0-1.3,2.1-1.6,3.4-1.6S55.2,15.7,55.2,17z"/>
			</g>
		</g>
	</g>
	<g>
		<g>
			<g>
				<path class="st3" d="M248.7,59.3l-3.8-0.7c-0.9-0.2-1.8-0.4-2.6-0.6v43.1h-106V43l-7.9,10.8v56h121.4V59.5
					C249.4,59.4,249.1,59.3,248.7,59.3z"/>
			</g>
		</g>
		<g>
			<g>
				<path class="st4" d="M242.3,101.1V58c-13.1-3.2-24.2-12-30.1-24.3l-4.9-10.3c-5.1-10.8-16-17.7-28-17.7H179
					c-8.6,0-16.9,3.6-22.7,9.9l-20,27.4v58.1H242.3z"/>
			</g>
		</g>
	</g>
</g>
</svg>
