<?xml version="1.0" encoding="utf-8"?>
<!-- Generator: Adobe Illustrator 25.4.1, SVG Export Plug-In . SVG Version: 6.00 Build 0)  -->
<svg version="1.1" id="Layer_1" xmlns="http://www.w3.org/2000/svg" xmlns:xlink="http://www.w3.org/1999/xlink" x="0px" y="0px"
	 viewBox="0 0 323.5 478.4" style="enable-background:new 0 0 323.5 478.4;" xml:space="preserve">
<style type="text/css">
	.st0{fill:#6F6B61;}
	.st1{fill:#565249;}
	.st2{fill:#99C99A;}
	.st3{fill:#A5D3A5;}
	.st4{fill:#CEC9BE;}
	.st5{fill:none;stroke:#000000;stroke-miterlimit:10;}
</style>
<g>
	<g>
		<g>
			<path class="st0" d="M168.3,156.1c0,0,7.9-30.7-5.9-41.9c-13.8-11.2-14.3,36.9-5.7,47.9C165.3,173.1,167.2,161.5,168.3,156.1z"/>
			<path class="st1" d="M159.4,127.3c12,4.5,7.6,34.3,7.6,34.3l0,0c0.6-1.9,1-4,1.3-5.6c0,0,7.9-30.7-5.9-41.9
				c-6.3-5.1-9.8,2.1-11,12.5C154.1,126.3,156.8,126.3,159.4,127.3z"/>
			<path class="st2" d="M159.5,115.5c0,0,15.5-7,19.7-17.8c4.2-10.7,5.8-32.4,11.3-38.2c5.6-5.8,12-15.4,10.3-25.5
				c-1.7-10.2-3-17.3-1.1-21.4c0,0-4.6,2.8-2.5,15.3c0,0-6.5-10.1,4.1-24c0,0-15.3,1.9-18.1,18.9c-2.7,17-12.8,25.7-18.9,31.4
				c-6.1,5.7-17.2,27.4-16.1,38.9C149.4,104.7,159.5,115.5,159.5,115.5z"/>
			<path class="st3" d="M153.1,106.8c3,5.2,6.4,8.7,6.4,8.7s15.9-21.1,15.9-36.5s10.4-25.9,13.2-33.7c2.8-7.7-15.6,5.1-25.7,25
				C156.3,83.3,152.6,96.4,153.1,106.8z"/>
			<path class="st4" d="M154.8,138.2c0,0.2-1.7,11.3,1.2,12.2C158.8,151.3,156.1,128.4,154.8,138.2z"/>
		</g>
	</g>
</g>
<g>
	<g>
		<g>
			<g>
				<circle class="st5" cx="162.2" cy="317.4" r="150"/>
			</g>
			<g>
				<path class="st0" d="M194.2,167.6c0,6-4.8,10.8-10.8,10.8s-10.8-4.8-10.8-10.8s4.8-10.8,10.8-10.8S194.2,161.7,194.2,167.6z"/>
				<path class="st1" d="M183.4,173.9c-5.2,0-9.5-3.7-10.6-8.6c-0.2,0.7-0.2,1.5-0.2,2.3c0,6,4.8,10.8,10.8,10.8s10.8-4.8,10.8-10.8
					c0-0.8-0.1-1.5-0.2-2.3C192.9,170.3,188.6,173.9,183.4,173.9z"/>
				<path class="st4" d="M187.5,163.5c0,2.3-1.8,4.1-4.1,4.1s-4.1-1.8-4.1-4.1s1.8-4.1,4.1-4.1S187.5,161.2,187.5,163.5z"/>
			</g>
			<g>
				<path class="st0" d="M221.4,174.5c0,6-4.8,10.8-10.8,10.8s-10.8-4.8-10.8-10.8s4.8-10.8,10.8-10.8
					C216.5,163.7,221.4,168.5,221.4,174.5z"/>
				<path class="st1" d="M210.6,180.8c-5.2,0-9.5-3.7-10.6-8.6c-0.2,0.7-0.2,1.5-0.2,2.3c0,6,4.8,10.8,10.8,10.8s10.8-4.8,10.8-10.8
					c0-0.8-0.1-1.5-0.2-2.3C220.1,177.1,215.8,180.8,210.6,180.8z"/>
				<path class="st4" d="M214.7,170.4c0,2.3-1.8,4.1-4.1,4.1s-4.1-1.8-4.1-4.1s1.8-4.1,4.1-4.1C212.8,166.3,214.7,168.1,214.7,170.4
					z"/>
			</g>
			<g>
				<path class="st0" d="M246.5,185.3c0,6-4.8,10.8-10.8,10.8s-10.8-4.8-10.8-10.8s4.8-10.8,10.8-10.8
					C241.6,174.5,246.5,179.3,246.5,185.3z"/>
				<path class="st1" d="M235.7,191.6c-5.2,0-9.5-3.7-10.6-8.6c-0.2,0.7-0.2,1.5-0.2,2.3c0,6,4.8,10.8,10.8,10.8s10.8-4.8,10.8-10.8
					c0-0.8-0.1-1.5-0.2-2.3C245.2,187.9,240.9,191.6,235.7,191.6z"/>
				<path class="st4" d="M239.8,181.2c0,2.3-1.8,4.1-4.1,4.1s-4.1-1.8-4.1-4.1s1.8-4.1,4.1-4.1C237.9,177.1,239.8,178.9,239.8,181.2
					z"/>
			</g>
			<g>
				<path class="st0" d="M268.1,200.4c0,6-4.8,10.8-10.8,10.8s-10.8-4.8-10.8-10.8s4.8-10.8,10.8-10.8
					C263.3,189.6,268.1,194.4,268.1,200.4z"/>
				<path class="st1" d="M257.3,206.7c-5.2,0-9.5-3.7-10.6-8.6c-0.2,0.7-0.2,1.5-0.2,2.3c0,6,4.8,10.8,10.8,10.8s10.8-4.8,10.8-10.8
					c0-0.8-0.1-1.5-0.2-2.3C266.8,203,262.5,206.7,257.3,206.7z"/>
				<path class="st4" d="M261.4,196.3c0,2.3-1.8,4.1-4.1,4.1c-2.3,0-4.1-1.8-4.1-4.1s1.8-4.1,4.1-4.1
					C259.6,192.2,261.4,194,261.4,196.3z"/>
			</g>
			<g>
				<path class="st0" d="M288.1,217.8c0,6-4.8,10.8-10.8,10.8s-10.8-4.8-10.8-10.8s4.8-10.8,10.8-10.8
					C283.3,207,288.1,211.8,288.1,217.8z"/>
				<path class="st1" d="M277.3,224.1c-5.2,0-9.5-3.7-10.6-8.6c-0.2,0.7-0.2,1.5-0.2,2.3c0,6,4.8,10.8,10.8,10.8s10.8-4.8,10.8-10.8
					c0-0.8-0.1-1.5-0.2-2.3C286.8,220.4,282.5,224.1,277.3,224.1z"/>
				<path class="st4" d="M281.4,213.7c0,2.3-1.8,4.1-4.1,4.1c-2.3,0-4.1-1.8-4.1-4.1s1.8-4.1,4.1-4.1
					C279.6,209.6,281.4,211.4,281.4,213.7z"/>
			</g>
			<g>
				<path class="st0" d="M303,239.4c0,6-4.8,10.8-10.8,10.8s-10.8-4.8-10.8-10.8s4.8-10.8,10.8-10.8
					C298.2,228.6,303,233.5,303,239.4z"/>
				<path class="st1" d="M292.2,245.7c-5.2,0-9.5-3.7-10.6-8.6c-0.2,0.7-0.2,1.5-0.2,2.3c0,6,4.8,10.8,10.8,10.8s10.8-4.8,10.8-10.8
					c0-0.8-0.1-1.5-0.2-2.3C301.7,242.1,297.4,245.7,292.2,245.7z"/>
				<path class="st4" d="M296.3,235.3c0,2.3-1.8,4.1-4.1,4.1c-2.3,0-4.1-1.8-4.1-4.1s1.8-4.1,4.1-4.1S296.3,233,296.3,235.3z"/>
			</g>
			<g>
				<path class="st0" d="M313.8,262.8c0,6-4.8,10.8-10.8,10.8s-10.8-4.8-10.8-10.8S297,252,303,252C309,252,313.8,256.8,313.8,262.8
					z"/>
				<path class="st1" d="M303,269.1c-5.2,0-9.5-3.7-10.6-8.6c-0.2,0.7-0.2,1.5-0.2,2.3c0,6,4.8,10.8,10.8,10.8s10.8-4.8,10.8-10.8
					c0-0.8-0.1-1.5-0.2-2.3C312.6,265.4,308.2,269.1,303,269.1z"/>
				<path class="st4" d="M307.1,258.7c0,2.3-1.8,4.1-4.1,4.1c-2.3,0-4.1-1.8-4.1-4.1c0-2.3,1.8-4.1,4.1-4.1
					C305.3,254.6,307.1,256.4,307.1,258.7z"/>
			</g>
			<g>
				<path class="st0" d="M319.8,288c0,6-4.8,10.8-10.8,10.8s-10.8-4.8-10.8-10.8s4.8-10.8,10.8-10.8
					C314.9,277.2,319.8,282,319.8,288z"/>
				<path class="st1" d="M308.9,294.3c-5.2,0-9.5-3.7-10.6-8.6c-0.2,0.7-0.2,1.5-0.2,2.3c0,6,4.8,10.8,10.8,10.8s10.8-4.8,10.8-10.8
					c0-0.8-0.1-1.5-0.2-2.3C318.5,290.6,314.1,294.3,308.9,294.3z"/>
				<path class="st4" d="M313.1,283.8c0,2.3-1.8,4.1-4.1,4.1c-2.3,0-4.1-1.8-4.1-4.1c0-2.3,1.8-4.1,4.1-4.1
					C311.2,279.7,313.1,281.6,313.1,283.8z"/>
			</g>
			<g>
				<path class="st0" d="M323,312.3c0,6-4.8,10.8-10.8,10.8s-10.8-4.8-10.8-10.8s4.8-10.8,10.8-10.8S323,306.3,323,312.3z"/>
				<path class="st1" d="M312.2,318.6c-5.2,0-9.5-3.7-10.6-8.6c-0.2,0.7-0.2,1.5-0.2,2.3c0,6,4.8,10.8,10.8,10.8s10.8-4.8,10.8-10.8
					c0-0.8-0.1-1.5-0.2-2.3C321.7,314.9,317.4,318.6,312.2,318.6z"/>
				<path class="st4" d="M316.3,308.2c0,2.3-1.8,4.1-4.1,4.1c-2.3,0-4.1-1.8-4.1-4.1c0-2.3,1.8-4.1,4.1-4.1S316.3,305.9,316.3,308.2
					z"/>
			</g>
			<g>
				<path class="st0" d="M321,338.4c0,6-4.8,10.8-10.8,10.8s-10.8-4.8-10.8-10.8s4.8-10.8,10.8-10.8S321,332.5,321,338.4z"/>
				<path class="st1" d="M310.2,344.7c-5.2,0-9.5-3.7-10.6-8.6c-0.2,0.7-0.2,1.5-0.2,2.3c0,6,4.8,10.8,10.8,10.8s10.8-4.8,10.8-10.8
					c0-0.8-0.1-1.5-0.2-2.3C319.8,341.1,315.4,344.7,310.2,344.7z"/>
				<path class="st4" d="M314.3,334.3c0,2.3-1.8,4.1-4.1,4.1c-2.3,0-4.1-1.8-4.1-4.1c0-2.3,1.8-4.1,4.1-4.1
					C312.5,330.2,314.3,332,314.3,334.3z"/>
			</g>
			<g>
				<path class="st0" d="M315.6,364.6c0,6-4.8,10.8-10.8,10.8s-10.8-4.8-10.8-10.8s4.8-10.8,10.8-10.8
					C310.8,353.7,315.6,358.6,315.6,364.6z"/>
				<path class="st1" d="M304.8,370.9c-5.2,0-9.5-3.7-10.6-8.6c-0.2,0.7-0.2,1.5-0.2,2.3c0,6,4.8,10.8,10.8,10.8s10.8-4.8,10.8-10.8
					c0-0.8-0.1-1.5-0.2-2.3C314.4,367.2,310,370.9,304.8,370.9z"/>
				<path class="st4" d="M308.9,360.4c0,2.3-1.8,4.1-4.1,4.1c-2.3,0-4.1-1.8-4.1-4.1c0-2.3,1.8-4.1,4.1-4.1S308.9,358.2,308.9,360.4
					z"/>
			</g>
			<g>
				<path class="st0" d="M132.3,168.1c0,6,4.8,10.8,10.8,10.8s10.8-4.8,10.8-10.8s-4.8-10.8-10.8-10.8
					C137.1,157.2,132.3,162.1,132.3,168.1z"/>
				<path class="st1" d="M143.1,174.4c5.2,0,9.5-3.7,10.6-8.6c0.2,0.7,0.2,1.5,0.2,2.3c0,6-4.8,10.8-10.8,10.8s-10.8-4.8-10.8-10.8
					c0-0.8,0.1-1.5,0.2-2.3C133.5,170.7,137.9,174.4,143.1,174.4z"/>
				<path class="st4" d="M139,163.9c0,2.3,1.8,4.1,4.1,4.1s4.1-1.8,4.1-4.1s-1.8-4.1-4.1-4.1C140.8,159.8,139,161.7,139,163.9z"/>
			</g>
			<g>
				<path class="st0" d="M105.1,174.9c0,6,4.8,10.8,10.8,10.8s10.8-4.8,10.8-10.8s-4.8-10.8-10.8-10.8
					C110,164.1,105.1,168.9,105.1,174.9z"/>
				<path class="st1" d="M115.9,181.2c5.2,0,9.5-3.7,10.6-8.6c0.2,0.7,0.2,1.5,0.2,2.3c0,6-4.8,10.8-10.8,10.8s-10.8-4.8-10.8-10.8
					c0-0.8,0.1-1.5,0.2-2.3C106.4,177.5,110.7,181.2,115.9,181.2z"/>
				<path class="st4" d="M111.8,170.8c0,2.3,1.8,4.1,4.1,4.1c2.3,0,4.1-1.8,4.1-4.1s-1.8-4.1-4.1-4.1
					C113.7,166.7,111.8,168.5,111.8,170.8z"/>
			</g>
			<g>
				<path class="st0" d="M80,185.7c0,6,4.8,10.8,10.8,10.8s10.8-4.8,10.8-10.8s-4.8-10.8-10.8-10.8C84.9,174.9,80,179.8,80,185.7z"
					/>
				<path class="st1" d="M90.8,192c5.2,0,9.5-3.7,10.6-8.6c0.2,0.7,0.2,1.5,0.2,2.3c0,6-4.8,10.8-10.8,10.8S80,191.7,80,185.7
					c0-0.8,0.1-1.5,0.2-2.3C81.3,188.4,85.6,192,90.8,192z"/>
				<path class="st4" d="M86.7,181.6c0,2.3,1.8,4.1,4.1,4.1c2.3,0,4.1-1.8,4.1-4.1s-1.8-4.1-4.1-4.1
					C88.6,177.5,86.7,179.3,86.7,181.6z"/>
			</g>
			<g>
				<path class="st0" d="M58.4,200.8c0,6,4.8,10.8,10.8,10.8S80,206.8,80,200.8S75.2,190,69.2,190S58.4,194.8,58.4,200.8z"/>
				<path class="st1" d="M69.2,207.1c5.2,0,9.5-3.7,10.6-8.6c0.2,0.7,0.2,1.5,0.2,2.3c0,6-4.8,10.8-10.8,10.8s-10.8-4.8-10.8-10.8
					c0-0.8,0.1-1.5,0.2-2.3C59.7,203.4,64,207.1,69.2,207.1z"/>
				<path class="st4" d="M65.1,196.7c0,2.3,1.8,4.1,4.1,4.1c2.3,0,4.1-1.8,4.1-4.1s-1.8-4.1-4.1-4.1
					C66.9,192.6,65.1,194.4,65.1,196.7z"/>
			</g>
			<g>
				<path class="st0" d="M38.4,218.2c0,6,4.8,10.8,10.8,10.8S60,224.2,60,218.2s-4.8-10.8-10.8-10.8S38.4,212.2,38.4,218.2z"/>
				<path class="st1" d="M49.2,224.5c5.2,0,9.5-3.7,10.6-8.6c0.2,0.7,0.2,1.5,0.2,2.3c0,6-4.8,10.8-10.8,10.8s-10.8-4.8-10.8-10.8
					c0-0.8,0.1-1.5,0.2-2.3C39.7,220.8,44,224.5,49.2,224.5z"/>
				<path class="st4" d="M45.1,214.1c0,2.3,1.8,4.1,4.1,4.1s4.1-1.8,4.1-4.1s-1.8-4.1-4.1-4.1C46.9,210,45.1,211.8,45.1,214.1z"/>
			</g>
			<g>
				<path class="st0" d="M23.5,239.8c0,6,4.8,10.8,10.8,10.8s10.8-4.8,10.8-10.8S40.3,229,34.3,229S23.5,233.9,23.5,239.8z"/>
				<path class="st1" d="M34.3,246.1c5.2,0,9.5-3.7,10.6-8.6c0.2,0.7,0.2,1.5,0.2,2.3c0,6-4.8,10.8-10.8,10.8s-10.8-4.8-10.8-10.8
					c0-0.8,0.1-1.5,0.2-2.3C24.8,242.5,29.1,246.1,34.3,246.1z"/>
				<path class="st4" d="M30.2,235.7c0,2.3,1.8,4.1,4.1,4.1s4.1-1.8,4.1-4.1s-1.8-4.1-4.1-4.1C32,231.6,30.2,233.4,30.2,235.7z"/>
			</g>
			<g>
				<path class="st0" d="M10.9,263.2c0,6,4.8,10.8,10.8,10.8s10.8-4.8,10.8-10.8s-4.8-10.8-10.8-10.8
					C15.7,252.4,10.9,257.2,10.9,263.2z"/>
				<path class="st1" d="M21.7,269.5c5.2,0,9.5-3.7,10.6-8.6c0.2,0.7,0.2,1.5,0.2,2.3c0,6-4.8,10.8-10.8,10.8s-10.8-4.8-10.8-10.8
					c0-0.8,0.1-1.5,0.2-2.3C12.1,265.8,16.5,269.5,21.7,269.5z"/>
				<path class="st4" d="M17.6,259.1c0,2.3,1.8,4.1,4.1,4.1s4.1-1.8,4.1-4.1c0-2.3-1.8-4.1-4.1-4.1S17.6,256.8,17.6,259.1z"/>
			</g>
			<g>
				<path class="st0" d="M3.5,288c0,6,4.8,10.8,10.8,10.8S25.1,294,25.1,288s-4.8-10.8-10.8-10.8S3.5,282,3.5,288z"/>
				<path class="st1" d="M14.3,294.3c5.2,0,9.5-3.7,10.6-8.6c0.2,0.7,0.2,1.5,0.2,2.3c0,6-4.8,10.8-10.8,10.8S3.5,294,3.5,288
					c0-0.8,0.1-1.5,0.2-2.3C4.8,290.6,9.1,294.3,14.3,294.3z"/>
				<path class="st4" d="M10.2,283.8c0,2.3,1.8,4.1,4.1,4.1s4.1-1.8,4.1-4.1c0-2.3-1.8-4.1-4.1-4.1C12,279.7,10.2,281.6,10.2,283.8z
					"/>
			</g>
			<g>
				<path class="st0" d="M1.4,312.7c0,6,4.8,10.8,10.8,10.8S23,318.7,23,312.7s-4.8-10.8-10.8-10.8C6.2,301.9,1.4,306.7,1.4,312.7z"
					/>
				<path class="st1" d="M12.2,319c5.2,0,9.5-3.7,10.6-8.6c0.2,0.7,0.2,1.5,0.2,2.3c0,6-4.8,10.8-10.8,10.8s-10.8-4.8-10.8-10.8
					c0-0.8,0.1-1.5,0.2-2.3C2.7,315.3,7,319,12.2,319z"/>
				<path class="st4" d="M8.1,308.6c0,2.3,1.8,4.1,4.1,4.1s4.1-1.8,4.1-4.1c0-2.3-1.8-4.1-4.1-4.1S8.1,306.3,8.1,308.6z"/>
			</g>
			<g>
				<path class="st0" d="M5.5,338.8c0,6,4.8,10.8,10.8,10.8s10.8-4.8,10.8-10.8S22.3,328,16.3,328S5.5,332.9,5.5,338.8z"/>
				<path class="st1" d="M16.3,345.1c5.2,0,9.5-3.7,10.6-8.6c0.2,0.7,0.2,1.5,0.2,2.3c0,6-4.8,10.8-10.8,10.8s-10.8-4.8-10.8-10.8
					c0-0.8,0.1-1.5,0.2-2.3C6.7,341.5,11.1,345.1,16.3,345.1z"/>
				<path class="st4" d="M12.2,334.7c0,2.3,1.8,4.1,4.1,4.1s4.1-1.8,4.1-4.1c0-2.3-1.8-4.1-4.1-4.1S12.2,332.4,12.2,334.7z"/>
			</g>
			<g>
				<path class="st0" d="M10.9,365c0,6,4.8,10.8,10.8,10.8S32.5,371,32.5,365s-4.8-10.8-10.8-10.8S10.9,359,10.9,365z"/>
				<path class="st1" d="M21.7,371.3c5.2,0,9.5-3.7,10.6-8.6c0.2,0.7,0.2,1.5,0.2,2.3c0,6-4.8,10.8-10.8,10.8S10.9,371,10.9,365
					c0-0.8,0.1-1.5,0.2-2.3C12.1,367.6,16.5,371.3,21.7,371.3z"/>
				<path class="st4" d="M17.6,360.8c0,2.3,1.8,4.1,4.1,4.1s4.1-1.8,4.1-4.1c0-2.3-1.8-4.1-4.1-4.1
					C19.4,356.7,17.6,358.6,17.6,360.8z"/>
			</g>
			<g>
				<path class="st0" d="M254.6,438.1c-4.6-3.9-5.1-10.7-1.3-15.2c3.9-4.6,10.7-5.1,15.2-1.3c4.6,3.9,5.1,10.7,1.3,15.2
					C266,441.4,259.1,442,254.6,438.1z"/>
				<path class="st1" d="M256.8,425.8c3.4-4,9-4.9,13.4-2.5c-0.5-0.6-1-1.1-1.6-1.6c-4.6-3.9-11.4-3.3-15.2,1.3
					c-3.9,4.6-3.3,11.4,1.3,15.2c0.6,0.5,1.2,0.9,1.9,1.3C253.4,435.5,253.4,429.8,256.8,425.8z"/>
				<path class="st4" d="M262,435.7c-1.7-1.5-2-4.1-0.5-5.8c1.5-1.7,4.1-2,5.8-0.5c1.7,1.5,1.9,4.1,0.5,5.8S263.8,437.2,262,435.7z"
					/>
			</g>
			<g>
				<path class="st0" d="M231.8,454.4c-4.6-3.9-5.1-10.7-1.3-15.2c3.9-4.6,10.7-5.1,15.2-1.3c4.6,3.9,5.1,10.7,1.3,15.2
					C243.2,457.7,236.4,458.3,231.8,454.4z"/>
				<path class="st1" d="M234,442.1c3.4-4,9-4.9,13.4-2.5c-0.5-0.6-1-1.1-1.6-1.6c-4.6-3.9-11.4-3.3-15.2,1.3
					c-3.9,4.6-3.3,11.4,1.3,15.2c0.6,0.5,1.2,0.9,1.9,1.3C230.6,451.7,230.6,446.1,234,442.1z"/>
				<path class="st4" d="M239.3,452c-1.7-1.5-2-4.1-0.5-5.8c1.5-1.7,4.1-2,5.8-0.5s1.9,4.1,0.5,5.8C243.6,453.2,241,453.4,239.3,452
					z"/>
			</g>
			<g>
				<path class="st0" d="M207.7,466.6c-4.6-3.9-5.1-10.7-1.3-15.2c3.9-4.6,10.7-5.1,15.2-1.3c4.6,3.9,5.1,10.7,1.3,15.2
					C219.1,469.9,212.2,470.5,207.7,466.6z"/>
				<path class="st1" d="M209.9,454.3c3.4-4,9-4.9,13.4-2.5c-0.5-0.6-1-1.1-1.6-1.6c-4.6-3.9-11.4-3.3-15.2,1.3
					c-3.9,4.6-3.3,11.4,1.3,15.2c0.6,0.5,1.2,0.9,1.9,1.3C206.5,464,206.5,458.3,209.9,454.3z"/>
				<path class="st4" d="M215.2,464.2c-1.7-1.5-2-4.1-0.5-5.8c1.5-1.7,4.1-2,5.8-0.5s1.9,4.1,0.5,5.8
					C219.5,465.5,216.9,465.7,215.2,464.2z"/>
			</g>
			<g>
				<path class="st0" d="M181.8,470.7c-4.6-3.9-5.1-10.7-1.3-15.2c3.9-4.6,10.7-5.1,15.2-1.3c4.6,3.9,5.1,10.7,1.3,15.2
					C193.2,474,186.4,474.5,181.8,470.7z"/>
				<path class="st1" d="M184,458.3c3.4-4,9-4.9,13.4-2.5c-0.5-0.6-1-1.1-1.6-1.6c-4.6-3.9-11.4-3.3-15.2,1.3
					c-3.9,4.6-3.3,11.4,1.3,15.2c0.6,0.5,1.2,0.9,1.9,1.3C180.6,468,180.6,462.3,184,458.3z"/>
				<path class="st4" d="M189.3,468.2c-1.7-1.5-2-4.1-0.5-5.8c1.5-1.7,4.1-2,5.8-0.5s1.9,4.1,0.5,5.8
					C193.6,469.5,191,469.7,189.3,468.2z"/>
			</g>
			<g>
				<path class="st0" d="M155.6,474.7c-4.6-3.9-5.1-10.7-1.3-15.2c3.9-4.6,10.7-5.1,15.2-1.3c4.6,3.9,5.1,10.7,1.3,15.2
					C167,478,160.2,478.5,155.6,474.7z"/>
				<path class="st1" d="M157.8,462.3c3.4-4,9-4.9,13.4-2.5c-0.5-0.6-1-1.1-1.6-1.6c-4.6-3.9-11.4-3.3-15.2,1.3
					c-3.9,4.6-3.3,11.4,1.3,15.2c0.6,0.5,1.2,0.9,1.9,1.3C154.4,472,154.4,466.3,157.8,462.3z"/>
				<path class="st4" d="M163.1,472.2c-1.7-1.5-2-4.1-0.5-5.8c1.5-1.7,4.1-2,5.8-0.5s1.9,4.1,0.5,5.8
					C167.4,473.5,164.8,473.7,163.1,472.2z"/>
			</g>
			<g>
				<path class="st0" d="M129.5,472.1c-4.6-3.9-5.1-10.7-1.3-15.2c3.9-4.6,10.7-5.1,15.2-1.3c4.6,3.9,5.1,10.7,1.3,15.2
					C140.9,475.4,134,475.9,129.5,472.1z"/>
				<path class="st1" d="M131.7,459.8c3.4-4,9-4.9,13.4-2.5c-0.5-0.6-1-1.1-1.6-1.6c-4.6-3.9-11.4-3.3-15.2,1.3
					c-3.9,4.6-3.3,11.4,1.3,15.2c0.6,0.5,1.2,0.9,1.9,1.3C128.3,469.4,128.3,463.7,131.7,459.8z"/>
				<path class="st4" d="M136.9,469.6c-1.7-1.5-2-4.1-0.5-5.8c1.5-1.7,4.1-2,5.8-0.5s1.9,4.1,0.5,5.8
					C141.3,470.9,138.7,471.1,136.9,469.6z"/>
			</g>
			<g>
				<path class="st0" d="M104.7,465.2c-4.6-3.9-5.1-10.7-1.3-15.2c3.9-4.6,10.7-5.1,15.2-1.3c4.6,3.9,5.1,10.7,1.3,15.2
					C116,468.5,109.2,469.1,104.7,465.2z"/>
				<path class="st1" d="M106.8,452.9c3.4-4,9-4.9,13.4-2.5c-0.5-0.6-1-1.1-1.6-1.6c-4.6-3.9-11.4-3.3-15.2,1.3
					c-3.9,4.6-3.3,11.4,1.3,15.2c0.6,0.5,1.2,0.9,1.9,1.3C103.5,462.5,103.5,456.9,106.8,452.9z"/>
				<path class="st4" d="M112.1,462.8c-1.7-1.5-2-4.1-0.5-5.8c1.5-1.7,4.1-2,5.8-0.5c1.7,1.5,1.9,4.1,0.5,5.8
					C116.5,464,113.9,464.2,112.1,462.8z"/>
			</g>
			<g>
				<path class="st0" d="M80.9,457.1c-4.6-3.9-5.1-10.7-1.3-15.2c3.9-4.6,10.7-5.1,15.2-1.3c4.6,3.9,5.1,10.7,1.3,15.2
					C92.3,460.4,85.4,461,80.9,457.1z"/>
				<path class="st1" d="M83.1,444.8c3.4-4,9-4.9,13.4-2.5c-0.5-0.6-1-1.1-1.6-1.6c-4.6-3.9-11.4-3.3-15.2,1.3
					c-3.9,4.6-3.3,11.4,1.3,15.2c0.6,0.5,1.2,0.9,1.9,1.3C79.7,454.4,79.7,448.8,83.1,444.8z"/>
				<path class="st4" d="M88.4,454.7c-1.7-1.5-2-4.1-0.5-5.8c1.5-1.7,4.1-2,5.8-0.5c1.7,1.5,1.9,4.1,0.5,5.8
					C92.7,455.9,90.1,456.1,88.4,454.7z"/>
			</g>
			<g>
				<path class="st0" d="M61,440.2c-4.6-3.9-5.1-10.7-1.3-15.2c3.9-4.6,10.7-5.1,15.2-1.3c4.6,3.9,5.1,10.7,1.3,15.2
					C72.3,443.5,65.5,444.1,61,440.2z"/>
				<path class="st1" d="M63.1,427.9c3.4-4,9-4.9,13.4-2.5c-0.5-0.6-1-1.1-1.6-1.6c-4.6-3.9-11.4-3.3-15.2,1.3
					c-3.9,4.6-3.3,11.4,1.3,15.2c0.6,0.5,1.2,0.9,1.9,1.3C59.8,437.6,59.8,431.9,63.1,427.9z"/>
				<path class="st4" d="M68.4,437.8c-1.7-1.5-2-4.1-0.5-5.8c1.5-1.7,4.1-2,5.8-0.5c1.7,1.5,1.9,4.1,0.5,5.8
					C72.8,439,70.2,439.3,68.4,437.8z"/>
			</g>
			<g>
				<path class="st0" d="M42.3,421.8c-4.6-3.9-5.1-10.7-1.3-15.2c3.9-4.6,10.7-5.1,15.2-1.3c4.6,3.9,5.1,10.7,1.3,15.2
					C53.7,425.1,46.9,425.7,42.3,421.8z"/>
				<path class="st1" d="M44.5,409.5c3.4-4,9-4.9,13.4-2.5c-0.5-0.6-1-1.1-1.6-1.6c-4.6-3.9-11.4-3.3-15.2,1.3
					c-3.9,4.6-3.3,11.4,1.3,15.2c0.6,0.5,1.2,0.9,1.9,1.3C41.1,419.2,41.1,413.5,44.5,409.5z"/>
				<path class="st4" d="M49.8,419.4c-1.7-1.5-2-4.1-0.5-5.8c1.5-1.7,4.1-2,5.8-0.5s1.9,4.1,0.5,5.8
					C54.1,420.6,51.5,420.9,49.8,419.4z"/>
			</g>
			<g>
				<path class="st0" d="M274.4,418.4c-4.6-3.9-5.1-10.7-1.3-15.2c3.9-4.6,10.7-5.1,15.2-1.3c4.6,3.9,5.1,10.7,1.3,15.2
					C285.8,421.7,279,422.3,274.4,418.4z"/>
				<path class="st1" d="M276.6,406.1c3.4-4,9-4.9,13.4-2.5c-0.5-0.6-1-1.1-1.6-1.6c-4.6-3.9-11.4-3.3-15.2,1.3
					c-3.9,4.6-3.3,11.4,1.3,15.2c0.6,0.5,1.2,0.9,1.9,1.3C273.2,415.7,273.2,410.1,276.6,406.1z"/>
				<path class="st4" d="M281.9,416c-1.7-1.5-2-4.1-0.5-5.8c1.5-1.7,4.1-2,5.8-0.5c1.7,1.5,1.9,4.1,0.5,5.8
					C286.2,417.2,283.6,417.4,281.9,416z"/>
			</g>
			<path class="st0" d="M38.3,382c0,0-18.6,6.9-19.4,18s24.1-5.8,26.7-14.2C48.1,377.5,41.5,380.6,38.3,382z"/>
			<path class="st0" d="M305.3,389.5c0,0-12.9-15.1-23.6-12s13.9,20.6,22.6,20.1C312.9,397.1,307.6,392,305.3,389.5z"/>
		</g>
	</g>
</g>
</svg>
