<?xml version="1.0" encoding="utf-8"?>
<!-- Generator: Adobe Illustrator 25.4.1, SVG Export Plug-In . SVG Version: 6.00 Build 0)  -->
<svg version="1.1" id="Layer_1" xmlns="http://www.w3.org/2000/svg" xmlns:xlink="http://www.w3.org/1999/xlink" x="0px" y="0px"
	 viewBox="0 0 412.6 250.6" style="enable-background:new 0 0 412.6 250.6;" xml:space="preserve">
<style type="text/css">
	.st0{fill:#EF4237;}
	.st1{fill:#FFFFFF;}
	.st2{fill:#F89521;}
	.st3{fill:#BE202E;}
	.st4{fill:#F15B2B;}
	.st5{fill:#FBB042;}
</style>
<g>
	<g>
		<g>
			<path class="st0" d="M181.8,34.5l164.4,95.6l-6.1,3.5c-0.6,0.1-1.2,0.2-1.9,0.4l-5.5,3.6c0.2,0,0.4-0.1,0.6-0.1l-5.8,3.4
				l-89.8-53.4c-24.4-14.2-60.2-19.5-93.4-13.9l-25,4.3l-6.2,13.6c-8.8,19.6,0.7,40.5,24.9,54.5l90.1,52.6l-0.8,0.5
				c-0.4,0.1-0.8,0.2-1.2,0.3l-5.5,3.6l0,0l-9.6,5.6L45.8,113L181.8,34.5z"/>
		</g>
	</g>
	<g>
		<g>
			<path class="st0" d="M28.7,105.7c1.2-0.7,2-1.5,2.3-2.4l13.5-7.8c1.6-0.2,3-0.6,4.2-1.3l0,0l0,0l0,0l0,0c1.2-0.7,2-1.5,2.3-2.4
				l13.5-7.8c1.6-0.2,3-0.6,4.2-1.3l0.1-0.1c1.2-0.7,2-1.6,2.3-2.4l13.5-7.8c1.6-0.2,3-0.6,4.2-1.3l0,0l0,0l0,0l0,0
				c1.2-0.7,2-1.6,2.3-2.5l13.5-7.8c1.5-0.2,3-0.6,4.2-1.3l0,0l0,0l0,0l0.1,0c1.2-0.7,2-1.5,2.3-2.4l13.5-7.8c1.6-0.2,3-0.6,4.2-1.3
				l0,0l0,0l0,0l0,0l0,0l0,0c1.2-0.7,2-1.5,2.3-2.4l13.5-7.8c1.6-0.2,3-0.6,4.2-1.3l0.1,0l0,0v0l0,0c1.2-0.7,2-1.5,2.3-2.4l13.5-7.8
				c1.6-0.2,3-0.6,4.2-1.3l0,0l0,0l0,0l0,0c1.2-0.7,2-1.5,2.3-2.4l7.6-4.4l181.2,103.9l-4.9,2.8c0.2,0,0.4-0.1,0.6-0.1l-5.2,3
				L181.8,28.9l-1.2,0.7L39.8,110.9l-3.5,2.3l170.4,98.4c-2.2,1.7-4.8,3.9-9.4,3.5L16.7,111.5l7.6-4.4c1.6-0.2,3-0.6,4.2-1.3
				L28.7,105.7z"/>
		</g>
	</g>
	<g>
		<g>
			<path class="st0" d="M117.6,93.6l5.1-11.3l22.5-3.8c32.1-5.5,66.7-0.4,90.2,13.3l87.5,52l-75.2,43.7l-4.1,2.4h0l-10.6,6.2
				L140.5,142C118.3,129,109.8,111,117.6,93.6z"/>
		</g>
	</g>
	<g>
		<g>
			<path class="st1" d="M214,213.1l-1.2,2.1l-2.2-1.3c0.3-0.2,0.6-0.4,1-0.5C212.3,213.2,213.1,213.1,214,213.1z"/>
		</g>
	</g>
	<g>
		<g>
			<path class="st1" d="M113.2,91.6l6.2-13.6l25-4.3c33.2-5.6,69-0.3,93.4,13.9l89.8,53.4l-4.7,2.8l-87.5-52
				c-23.5-13.6-58-18.7-90.2-13.3l-22.5,3.8l-5.1,11.3c-7.8,17.4,0.7,35.5,22.9,48.4l92.4,53.9l-4.8,2.8l-90.1-52.6
				C114,132.1,104.4,111.2,113.2,91.6z"/>
		</g>
	</g>
	<g>
		<g>
			<path class="st1" d="M181.8,34.5L45.8,113l165.3,95.6l-3.3,1.9c0.6-0.4,1.3-0.6,2-0.9c-1.1,0.3-2.1,1.1-3.1,1.9L36.4,113.1
				l3.5-2.3l140.8-81.3l1.2-0.7L351,127.3l-4.8,2.8L181.8,34.5z"/>
		</g>
	</g>
	<g>
		<g>
			<path class="st2" d="M129.2,47.7L129.2,47.7L129.2,47.7L129.2,47.7L129.2,47.7L129.2,47.7l-0.1,0.1c-1.2,0.7-2.7,1.1-4.2,1.3
				c-2.9,0.3-6.1-0.2-8.4-1.5l-14.2-8.3c-0.5-0.3-0.5-0.8,0-1.1c0.6-0.3,1.4-0.3,1.9,0l14.2,8.3c1,0.6,2.2,0.9,3.4,1.1L105,37.7
				c-0.5-0.3-0.5-0.8,0-1.1c0.5-0.3,1.4-0.3,1.9,0l17.1,9.9c0.6,0.3,1.2,0.4,1.9,0.4l-18.4-10.7c-0.5-0.3-0.5-0.8,0-1.1
				c0.5-0.3,1.4-0.3,1.9,0l18.4,10.7c0-0.4-0.2-0.8-0.7-1.1L110,34.8c-0.5-0.3-0.5-0.8,0-1.1c0.6-0.3,1.4-0.3,1.9,0l16.8,9.8
				c-0.3-0.7-0.9-1.4-1.8-2l-14.2-8.3c-0.5-0.3-0.5-0.8,0-1.1c0.5-0.3,1.4-0.3,1.9,0l14.2,8.3c2.3,1.3,3.2,3.2,2.6,4.8
				C131.1,46.1,130.4,47,129.2,47.7z"/>
		</g>
	</g>
	<g>
		<g>
			<path class="st2" d="M109.1,59.3L109.1,59.3L109.1,59.3L109.1,59.3l-0.1,0.1c-1.2,0.7-2.7,1.1-4.2,1.3c-2.9,0.3-6.1-0.2-8.4-1.5
				l-14.2-8.3c-0.5-0.3-0.5-0.8,0-1.1c0.6-0.3,1.4-0.3,1.9,0L98.3,58c1,0.6,2.2,0.9,3.4,1.1l-16.8-9.8c-0.5-0.3-0.5-0.8,0-1.1
				c0.5-0.3,1.4-0.3,1.9,0l17.1,9.9c0.5,0.3,1.2,0.5,1.9,0.4L87.4,47.9c-0.5-0.3-0.5-0.8,0-1.1c0.5-0.3,1.4-0.3,1.9,0l18.4,10.7
				c0-0.4-0.2-0.8-0.7-1.1l-17.1-9.9c-0.5-0.3-0.5-0.8,0-1.1c0.5-0.3,1.4-0.3,1.9,0l16.8,9.8c-0.3-0.7-0.9-1.4-1.8-2l-14.2-8.3
				c-0.5-0.3-0.5-0.8,0-1.1c0.6-0.3,1.4-0.3,1.9,0l14.2,8.3c2.3,1.3,3.2,3.2,2.6,4.8C111,57.7,110.3,58.6,109.1,59.3z"/>
		</g>
	</g>
	<g>
		<g>
			<path class="st2" d="M89,70.9L89,70.9L89,70.9L89,70.9L89,70.9c-1.3,0.7-2.8,1.2-4.3,1.4c-2.9,0.3-6.1-0.2-8.4-1.5l-14.2-8.3
				c-0.5-0.3-0.5-0.8,0-1.1c0.5-0.3,1.4-0.3,1.9,0l14.2,8.3c1,0.6,2.2,0.9,3.4,1.1l-16.8-9.8c-0.5-0.3-0.5-0.8,0-1.1
				c0.5-0.3,1.4-0.3,1.9,0l17.1,9.9c0.6,0.3,1.2,0.4,1.9,0.4L67.3,59.5c-0.5-0.3-0.5-0.8,0-1.1c0.5-0.3,1.4-0.3,1.9,0L87.6,69
				c0-0.4-0.2-0.8-0.7-1.1L69.8,58c-0.5-0.3-0.5-0.8,0-1.1c0.5-0.3,1.4-0.3,1.9,0l16.8,9.8c-0.2-0.7-0.9-1.4-1.8-2l-14.2-8.3
				c-0.5-0.3-0.5-0.8,0-1.1c0.6-0.3,1.4-0.3,1.9,0l14.2,8.3c2.3,1.3,3.2,3.2,2.6,4.9C90.9,69.3,90.2,70.2,89,70.9z"/>
		</g>
	</g>
	<g>
		<g>
			<path class="st2" d="M149.3,36.1L149.3,36.1L149.3,36.1L149.3,36.1l-0.1,0.1c-1.2,0.7-2.7,1.1-4.2,1.3c-2.9,0.3-6.1-0.2-8.4-1.5
				l-14.2-8.3c-0.5-0.3-0.5-0.8,0-1.1c0.5-0.3,1.4-0.3,1.9,0l14.2,8.3c1,0.6,2.2,0.9,3.4,1.1l-16.8-9.8c-0.5-0.3-0.5-0.8,0-1.1
				s1.4-0.3,1.9,0l17.1,9.9c0.6,0.3,1.3,0.5,1.9,0.4l-18.4-10.7c-0.5-0.3-0.5-0.8,0-1.1c0.6-0.3,1.4-0.3,1.9,0l18.4,10.7
				c0-0.4-0.2-0.8-0.7-1.1l-17.1-9.9c-0.5-0.3-0.5-0.8,0-1.1c0.6-0.3,1.4-0.3,1.9,0l16.8,9.8c-0.3-0.7-0.9-1.4-1.8-2l-14.2-8.3
				c-0.5-0.3-0.5-0.8,0-1.1c0.5-0.3,1.4-0.3,1.9,0l14.2,8.3c2.3,1.3,3.2,3.2,2.6,4.8C151.2,34.5,150.5,35.4,149.3,36.1z"/>
		</g>
	</g>
	<g>
		<g>
			<path class="st2" d="M169.4,24.5L169.4,24.5L169.4,24.5L169.4,24.5L169.4,24.5c-1.3,0.8-2.8,1.2-4.3,1.4
				c-2.9,0.3-6.1-0.2-8.4-1.5l-14.2-8.3c-0.5-0.3-0.5-0.8,0-1.1c0.5-0.3,1.4-0.3,1.9,0l14.2,8.3c1,0.6,2.2,0.9,3.5,1.1l-16.9-9.8
				c-0.5-0.3-0.5-0.8,0-1.1c0.6-0.3,1.4-0.3,1.9,0l17.1,9.9c0.6,0.3,1.3,0.5,1.9,0.4L147.7,13c-0.5-0.3-0.5-0.8,0-1.1
				c0.6-0.3,1.4-0.3,1.9,0L168,22.6c0-0.4-0.2-0.8-0.7-1.1l-17.1-9.9c-0.5-0.3-0.5-0.8,0-1.1c0.6-0.3,1.4-0.3,1.9,0l16.8,9.8
				c-0.3-0.7-0.9-1.4-1.8-2L152.9,10c-0.5-0.3-0.5-0.8,0-1.1c0.5-0.3,1.4-0.3,1.9,0l14.2,8.3c2.3,1.3,3.2,3.2,2.6,4.8
				C171.3,22.9,170.6,23.8,169.4,24.5z"/>
		</g>
	</g>
	<g>
		<g>
			<path class="st2" d="M68.9,82.5L68.9,82.5c-1.3,0.8-2.8,1.2-4.3,1.4c-2.9,0.3-6.1-0.2-8.4-1.5L42,74.1c-0.5-0.3-0.5-0.8,0-1.1
				c0.5-0.3,1.4-0.3,1.9,0l14.2,8.3c1,0.6,2.2,0.9,3.4,1.1l-16.8-9.8c-0.5-0.3-0.5-0.8,0-1.1c0.6-0.3,1.4-0.3,1.9,0l17.1,9.9
				c0.5,0.3,1.2,0.5,1.9,0.4L47.2,71.1c-0.5-0.3-0.5-0.8,0-1.1c0.6-0.3,1.4-0.3,1.9,0l18.4,10.7c0-0.4-0.2-0.8-0.7-1.1l-17.1-9.9
				c-0.5-0.3-0.5-0.8,0-1.1c0.5-0.3,1.4-0.3,1.9,0l16.8,9.8c-0.3-0.7-0.9-1.4-1.8-2l-14.2-8.3c-0.5-0.3-0.5-0.8,0-1.1
				c0.6-0.3,1.4-0.3,1.9,0l14.2,8.3c2.3,1.3,3.2,3.2,2.6,4.9C70.8,80.9,70.1,81.8,68.9,82.5z"/>
		</g>
	</g>
	<g>
		<g>
			<path class="st2" d="M48.8,94.1L48.8,94.1L48.8,94.1L48.8,94.1L48.8,94.1c-1.3,0.8-2.8,1.2-4.3,1.4c-2.9,0.3-6.1-0.2-8.4-1.5
				l-14.2-8.3c-0.5-0.3-0.5-0.8,0-1.1c0.5-0.3,1.4-0.3,1.9,0L38,92.8c1,0.6,2.2,0.9,3.5,1.1l-16.9-9.8c-0.5-0.3-0.5-0.8,0-1.1
				c0.6-0.3,1.4-0.3,1.9,0l17.1,9.9c0.6,0.3,1.3,0.4,1.9,0.4L27.1,82.7c-0.5-0.3-0.5-0.8,0-1.1c0.6-0.3,1.4-0.3,1.9,0l18.4,10.7
				c0-0.4-0.2-0.8-0.7-1.1l-17.1-9.9c-0.5-0.3-0.5-0.8,0-1.1c0.6-0.3,1.4-0.3,1.9,0l16.8,9.8c-0.3-0.7-0.9-1.4-1.8-2l-14.2-8.3
				c-0.5-0.3-0.5-0.8,0-1.1c0.5-0.3,1.4-0.3,1.9,0l14.2,8.3c2.3,1.3,3.2,3.2,2.6,4.8C50.7,92.6,50,93.4,48.8,94.1z"/>
		</g>
	</g>
	<g>
		<g>
			<path class="st2" d="M1.8,96.2c0.5-0.3,1.4-0.3,1.9,0l14.2,8.3c1,0.6,2.2,0.9,3.4,1.1L4.5,95.7c-0.5-0.3-0.5-0.8,0-1.1
				c0.5-0.3,1.4-0.3,1.9,0l17.1,9.9c0.6,0.3,1.3,0.5,1.9,0.4L7,94.3c-0.5-0.3-0.5-0.8,0-1.1c0.6-0.3,1.4-0.3,1.9,0l18.4,10.7
				c0-0.4-0.2-0.8-0.7-1.1L9.5,92.8C9,92.5,9,92,9.5,91.7c0.6-0.3,1.4-0.3,1.9,0l16.8,9.8c-0.3-0.7-0.9-1.4-1.8-2l-14.2-8.3
				c-0.5-0.3-0.5-0.8,0-1.1c0.5-0.3,1.4-0.3,1.9,0l14.2,8.3c2.3,1.3,3.2,3.2,2.6,4.8c-0.3,0.9-1.1,1.7-2.3,2.4l-0.1,0.1
				c-1.2,0.7-2.7,1.1-4.2,1.3c-2.9,0.3-6.1-0.2-8.4-1.5L1.8,97.3C1.2,97,1.3,96.5,1.8,96.2z"/>
		</g>
	</g>
	<g>
		<g>
			<path class="st3" d="M235.1,226c2.6,3.7,4,7.5,4,10.7c0,2.4-1.1,4-3.1,4.6c-2,0.6-4.9,0.1-8.1-1.8c-2.5-1.4-4.7-3.7-6.3-5.9
				c-1.6-2.2-2.4-4.4-2.4-6.2c0-0.6,0.2-1.1,0.4-1.5c0.1-0.1,0.2-0.2,0.3-0.3c0.3-0.3,0.6-0.6,1.1-0.8c1.2-0.3,2.9,0,4.9,1.1
				c1.5,0.9,2.8,2.2,3.7,3.4c0.9,1.3,1.3,2.5,1.3,3.4c0,0.6-0.3,1.1-1,1.3c-0.7,0.2-1.7,0-2.8-0.6c-0.8-0.5-1.4-0.1-1.4,0.9
				c0,0.9,0.6,2.1,1.4,2.5c1.7,1,3.3,1.3,4.6,1c1.2-0.4,2.1-1.4,2.1-3.3c0-2.2-1-4.7-2.5-6.7c-1.5-2.1-3.4-3.9-5.5-5.1
				c-2.5-1.5-4.9-1.9-6.7-1.4c-0.3,0.1-0.6,0.2-0.9,0.4l7.6-4.4C229.5,219.4,232.8,222.6,235.1,226z"/>
		</g>
	</g>
	<g>
		<g>
			<path class="st4" d="M371.9,164.4c0-4.7-2-10.3-5.6-15.5c-3.4-4.9-8-9.2-12.9-12c-5.4-3.1-9.3-3.9-13.3-3.3l6.1-3.5l4.8-2.8
				l5.2-3c3.7-0.6,12.2,1.2,17,3.9c4.3,2.5,8.3,6.2,11.3,10.6c3,4.4,5.1,9,4.8,12.7c-0.5,6-7.2,9.5-8.6,10.4l6.2-3.3l-17,9.9
				C371,167.5,371.9,166.4,371.9,164.4z"/>
		</g>
	</g>
	<g>
		<g>
			<path class="st4" d="M276.4,201.4c-3.4-5-8-9.2-12.9-12c-6.2-3.6-7.8-5.3-12.5-4l-3.4,2l75.2-43.7l4.7-2.8l5.8-3.4
				c3.8-0.7,12.9,0.8,17.6,3.5c4.3,2.5,8.3,6.2,11.3,10.6c3,4.4,5.1,9,4.8,12.7c-0.5,6-8.1,10.1-9.5,10.9l7.5-4.1l-84.4,49
				c0.7-0.8,1.3-1.8,1.3-3.3C282,212.2,280,206.6,276.4,201.4z"/>
		</g>
	</g>
	<g>
		<g>
			<path class="st4" d="M240.7,243c0.1-0.2,0.3-0.3,0.4-0.5c0.2-0.4,0.4-0.8,0.6-1.2c0.1-0.2,0.2-0.4,0.2-0.6
				c0.2-0.7,0.3-1.4,0.3-2.3c0-4.4-2.1-9.5-5.2-14.1c-3.1-4.5-7.4-8.6-12.1-11.3c-5.8-3.3-11.1-4.4-15-3.3c-0.7,0.2-1.4,0.5-2,0.9
				l3.3-1.9l9.6-5.6c3.4-0.9,13.2,0.5,18.2,3.4c4.3,2.5,8.3,6.2,11.3,10.6c3,4.4,5.1,9,4.8,12.7c-0.5,5.2-6.1,8.9-8.6,10.4l-0.9,0.5
				c0,0,0,0,0,0h0l-6.4,3.7c0.1,0,0.1-0.1,0.2-0.1c0.2-0.1,0.3-0.2,0.4-0.4C240.1,243.6,240.4,243.3,240.7,243z"/>
		</g>
	</g>
	<g>
		<g>
			<path class="st4" d="M254.2,214.3c-3.4-5-8-9.2-12.9-12c-5.7-3.3-9.8-4-14-3.1l0.8-0.5l4.8-2.8l10.6-6.2
				c3.4-0.9,12.6,0.9,17.6,3.8c4.3,2.5,8.3,6.2,11.3,10.6c3,4.4,5.1,9,4.8,12.7c-0.5,5.2-5.5,8.5-7.8,9.9l-0.9,0.5l0,0l0,0
				l-10.1,5.9c0.8-0.8,1.3-1.8,1.3-3.4C259.9,225.1,257.8,219.4,254.2,214.3z"/>
		</g>
	</g>
	<g>
		<g>
			<path class="st4" d="M388.4,136.1c-3.4-5-8-9.2-12.9-12c-5.9-3.4-7.7-5.1-11.8-4.2l13.1-7.6c0.6-0.4,1.3-0.7,2-0.9
				c3.9-1.1,9.2-0.1,15,3.3c4.7,2.7,8.9,6.8,12.1,11.3c3.1,4.5,5.2,9.7,5.2,14.1c0,2.9-1.1,5-2.9,6l-15.9,9.2c1-0.8,1.7-2,1.7-3.8
				C394.1,146.9,392,141.2,388.4,136.1z"/>
		</g>
	</g>
	<g>
		<g>
			<path class="st1" d="M268.6,227.2c0.2-0.1,0.5-0.3,0.9-0.5c2.3-1.4,7.3-4.7,7.8-9.9c0.3-3.7-1.7-8.3-4.8-12.7
				c-3-4.4-7.1-8.1-11.3-10.6c-5-2.9-14.2-4.8-17.6-3.8h0l4.1-2.4l3.4-2c4.6-1.3,6.3,0.4,12.5,4c4.9,2.8,9.4,7.1,12.9,12
				c3.6,5.2,5.6,10.8,5.6,15.4c0,1.5-0.5,2.5-1.3,3.3c-1,1.1-2.5,1.8-4,2.7L268.6,227.2L268.6,227.2L268.6,227.2z"/>
		</g>
	</g>
	<g>
		<g>
			<path class="st1" d="M245.6,240.6c0.2-0.1,0.5-0.3,0.9-0.5c2.5-1.4,8.1-5.2,8.6-10.4c0.3-3.7-1.7-8.3-4.8-12.7
				c-3-4.4-7.1-8.1-11.3-10.6c-5-2.9-14.9-4.4-18.2-3.4l0,0l5.5-3.6c0.4-0.1,0.8-0.2,1.2-0.3c4.2-0.9,8.3-0.2,14,3.1
				c4.9,2.8,9.4,7.1,12.9,12c3.6,5.2,5.7,10.8,5.6,15.4c0,1.6-0.6,2.6-1.3,3.4c-1,1.1-2.5,1.8-4,2.6L245.6,240.6L245.6,240.6
				C245.6,240.6,245.6,240.6,245.6,240.6z"/>
		</g>
	</g>
	<g>
		<g>
			<path class="st1" d="M389.2,151.5c0.3-3.7-1.7-8.3-4.8-12.7c-3-4.4-7.1-8.1-11.3-10.6c-4.7-2.7-13.2-4.5-17-3.9
				c-0.2,0-0.4,0-0.6,0.1l4.9-2.8l2.6-1.5c0.3-0.1,0.5-0.1,0.7-0.2c4.1-0.9,5.9,0.8,11.8,4.2c4.9,2.8,9.4,7.1,12.9,12
				c3.6,5.2,5.6,10.8,5.6,15.4c0,1.8-0.7,2.9-1.7,3.8c-1,0.9-2.3,1.4-3.7,2.2l-1.9,1l-6.2,3.3C382,161,388.7,157.5,389.2,151.5z"/>
		</g>
	</g>
	<g>
		<g>
			<path class="st1" d="M367.1,164.4c0.3-3.7-1.7-8.3-4.8-12.7c-3-4.4-7.1-8.1-11.3-10.6c-4.7-2.7-13.8-4.2-17.6-3.5
				c-0.2,0-0.5,0.1-0.6,0.1l5.5-3.6c0.6-0.2,1.2-0.3,1.9-0.4c4-0.7,7.9,0.2,13.3,3.3c4.9,2.8,9.4,7.1,12.9,12
				c3.6,5.2,5.6,10.8,5.6,15.5c0,2-0.9,3.2-2.1,4c-1,0.7-2.1,1.3-3.3,2l-1.4,0.8l-7.5,4.1C359,174.4,366.5,170.4,367.1,164.4z"/>
		</g>
	</g>
	<g>
		<g>
			<path class="st5" d="M197.3,215.1c4.5,0.4,7.2-1.8,9.4-3.5c1.1-0.8,2.1-1.6,3.1-1.9c3.9-1.1,9.2-0.1,15,3.3
				c4.7,2.7,8.9,6.8,12.1,11.3c3.1,4.5,5.2,9.7,5.2,14.1c0,0.8-0.1,1.6-0.3,2.3c-0.1,0.2-0.1,0.4-0.2,0.6c-0.2,0.4-0.3,0.9-0.6,1.2
				c-0.1,0.2-0.2,0.4-0.4,0.5c-0.3,0.3-0.5,0.6-0.9,0.9c-0.1,0.1-0.3,0.2-0.4,0.4c-0.5,0.3-1,0.6-1.6,0.7c-2.6,0.8-6.1,0.1-9.9-2.1
				c-3.1-1.8-5.9-4.5-8-7.5c-2.1-3.1-3.5-6.6-3.5-9.6c0-2.6,1.2-4.1,3-4.6c1.8-0.5,4.1,0,6.7,1.4c2.1,1.2,4,3.1,5.5,5.1
				c1.4,2.1,2.5,4.6,2.5,6.7c0,1.9-0.9,3-2.1,3.3c-1.2,0.3-2.8,0-4.6-1c-0.8-0.5-1.4-1.6-1.4-2.5c0-0.9,0.6-1.3,1.4-0.9
				c1.2,0.7,2.1,0.9,2.8,0.6c0.6-0.2,0.9-0.7,1-1.3c0-0.9-0.4-2.1-1.3-3.4c-0.9-1.3-2.2-2.6-3.7-3.4c-2-1.1-3.7-1.5-4.9-1.1
				c-0.5,0.1-0.8,0.4-1.1,0.8c-0.1,0.1-0.2,0.2-0.3,0.3c-0.3,0.4-0.4,0.9-0.4,1.5c0,1.8,0.8,4,2.4,6.2c1.6,2.2,3.8,4.4,6.3,5.9
				c3.2,1.9,6.1,2.4,8.1,1.8c2-0.6,3.1-2.2,3.1-4.6c0-3.2-1.5-6.9-4-10.7c-2.4-3.4-5.6-6.6-9.2-8.9c-0.4-0.2-0.7-0.5-1.1-0.7
				c-4.1-2.3-7.8-3.3-10.8-3.2c-0.8,0-1.7,0.1-2.4,0.3c-0.3,0.1-0.7,0.3-1,0.5c-2.7,1.7-4.5,6.6-12.3,5.3c-0.4-0.1-0.8-0.4-1.4-0.7
				v0L16.2,117l0.5-5.6l180.1,103.6C197,215.1,197.2,215.1,197.3,215.1z"/>
		</g>
	</g>
</g>
</svg>
